<svg width="100" height="100" viewBox="0 0 100 100" fill="none" xmlns="http://www.w3.org/2000/svg">
<path d="M0 15C0 6.71573 6.71573 0 15 0H85C93.2843 0 100 6.71573 100 15V85C100 93.2843 93.2843 100 85 100H15C6.71573 100 0 93.2843 0 85V15Z" fill="#1A1A28"/>
<path d="M80.7507 54.7708C79.7496 54.7708 78.8503 54.5617 78.053 54.1435C77.2556 53.7252 76.631 53.1468 76.1792 52.4082C75.7274 51.6607 75.5015 50.8198 75.5015 49.8854C75.5015 48.951 75.7274 48.1146 76.1792 47.376C76.631 46.6285 77.2556 46.0456 78.053 45.6274C78.8503 45.2091 79.7496 45 80.7507 45C81.7518 45 82.651 45.2091 83.4484 45.6274C84.2457 46.0456 84.8703 46.6285 85.3222 47.376C85.774 48.1146 85.9999 48.951 85.9999 49.8854C85.9999 50.8198 85.774 51.6607 85.3222 52.4082C84.8703 53.1468 84.2457 53.7252 83.4484 54.1435C82.651 54.5617 81.7518 54.7708 80.7507 54.7708ZM80.7507 52.2213C81.1405 52.2213 81.4905 52.1279 81.8005 51.941C82.1195 51.7453 82.372 51.4738 82.558 51.1268C82.7441 50.7708 82.8371 50.357 82.8371 49.8854C82.8371 49.4138 82.7441 49.0044 82.558 48.6574C82.372 48.3014 82.1195 48.03 81.8005 47.8432C81.4905 47.6474 81.1405 47.5495 80.7507 47.5495C80.3609 47.5495 80.0065 47.6474 79.6876 47.8432C79.3775 48.03 79.1294 48.3014 78.9434 48.6574C78.7573 49.0044 78.6643 49.4138 78.6643 49.8854C78.6643 50.357 78.7573 50.7708 78.9434 51.1268C79.1294 51.4738 79.3775 51.7453 79.6876 51.941C80.0065 52.1279 80.3609 52.2213 80.7507 52.2213Z" fill="white"/>
<path d="M74.3569 45V54.5627H71.7852L68.259 50.2185V54.5627H65.21V45H67.7817L71.3079 49.3442V45H74.3569Z" fill="white"/>
<path d="M60.5317 45H63.65V54.5627H60.5317V45Z" fill="white"/>
<path d="M44.2651 45.6416L49.214 54.712C49.419 54.7682 49.5171 54.7618 49.6762 54.712L51.0358 52.1746C51.0914 51.969 51.0969 51.84 51.0358 51.5913L47.4465 45.175C47.4465 45.175 44.537 45.1167 44.5098 45.1167C44.4826 45.1167 44.3467 45.2333 44.2923 45.3791C44.2379 45.525 44.2651 45.6416 44.2651 45.6416Z" fill="white"/>
<path d="M59.051 45.929L54.4431 54.6618C54.4137 54.7176 54.3607 54.7518 54.3036 54.7518H54.0344C53.9784 54.7518 53.9263 54.7189 53.8964 54.6648L51.7046 50.6839C51.6935 50.6637 51.6858 50.6413 51.683 50.6176C51.6741 50.5447 51.6587 50.3759 51.6878 50.2643C51.7082 50.1859 51.7614 50.094 51.8007 50.033C51.829 49.989 51.8746 49.9652 51.9225 49.9652H53.2957C53.3523 49.9652 53.4049 49.9316 53.4345 49.8766L54.7638 47.4078C54.7981 47.3441 54.7956 47.2631 54.7574 47.2023L53.9483 45.9152C53.9285 45.8836 53.9178 45.8458 53.9178 45.8069V45.2427C53.9178 45.1409 53.9897 45.058 54.0789 45.0569L58.7519 45C58.8008 44.9994 58.8475 45.0238 58.8766 45.0686C58.9377 45.1624 59.0395 45.3342 59.0681 45.4777C59.0925 45.6002 59.0795 45.7814 59.0721 45.859C59.0697 45.8839 59.0623 45.9076 59.051 45.929Z" fill="white"/>
<path d="M52.4947 48.8552L50.469 48.8038L49.7249 47.3645L49.2702 46.5421L48.9395 45.8224V45.5654L48.9808 45.3084L49.0221 45.2056L49.1462 45.0514L51.916 45L53.3215 47.5701L52.4947 48.8552Z" fill="white"/>
<path d="M52.4947 48.8552L50.469 48.8038L49.7249 47.3645L49.2702 46.5421L48.9395 45.8224V45.5654L48.9808 45.3084L49.0221 45.2056L49.1462 45.0514L51.916 45L53.3215 47.5701L52.4947 48.8552Z" fill="url(#paint0_linear_0_1951)"/>
<path d="M52.4947 48.8552L50.469 48.8038L49.7249 47.3645L49.2702 46.5421L48.9395 45.8224V45.5654L48.9808 45.3084L49.0221 45.2056L49.1462 45.0514L51.916 45L53.3215 47.5701L52.4947 48.8552Z" fill="url(#paint1_linear_0_1951)"/>
<path d="M52.4947 48.8552L50.469 48.8038L49.7249 47.3645L49.2702 46.5421L48.9395 45.8224V45.5654L48.9808 45.3084L49.0221 45.2056L49.1462 45.0514L51.916 45L53.3215 47.5701L52.4947 48.8552Z" fill="white"/>
<path d="M52.4947 48.8552L50.469 48.8038L49.7249 47.3645L49.2702 46.5421L48.9395 45.8224V45.5654L48.9808 45.3084L49.0221 45.2056L49.1462 45.0514L51.916 45L53.3215 47.5701L52.4947 48.8552Z" fill="url(#paint2_linear_0_1951)"/>
<path d="M52.4947 48.8552L50.469 48.8038L49.7249 47.3645L49.2702 46.5421L48.9395 45.8224V45.5654L48.9808 45.3084L49.0221 45.2056L49.1462 45.0514L51.916 45L53.3215 47.5701L52.4947 48.8552Z" fill="url(#paint3_linear_0_1951)"/>
<g filter="url(#filter0_f_0_1951)">
<path d="M52.672 49.0474L50.5453 48.9934L49.7641 47.4824L49.2867 46.6189L48.9395 45.8634V45.5936L48.9829 45.3238L49.0263 45.2159L49.1565 45.054L52.0644 45L53.54 47.6982L52.672 49.0474Z" fill="white"/>
<path d="M52.672 49.0474L50.5453 48.9934L49.7641 47.4824L49.2867 46.6189L48.9395 45.8634V45.5936L48.9829 45.3238L49.0263 45.2159L49.1565 45.054L52.0644 45L53.54 47.6982L52.672 49.0474Z" fill="url(#paint4_linear_0_1951)"/>
<path d="M52.672 49.0474L50.5453 48.9934L49.7641 47.4824L49.2867 46.6189L48.9395 45.8634V45.5936L48.9829 45.3238L49.0263 45.2159L49.1565 45.054L52.0644 45L53.54 47.6982L52.672 49.0474Z" fill="url(#paint5_linear_0_1951)"/>
</g>
<path d="M52.672 49.0474L50.5453 48.9934L49.7641 47.4824L49.2867 46.6189L48.9395 45.8634V45.5936L48.9829 45.3238L49.0263 45.2159L49.1565 45.054L52.0644 45L53.54 47.6982L52.672 49.0474Z" fill="white"/>
<path d="M52.672 49.0474L50.5453 48.9934L49.7641 47.4824L49.2867 46.6189L48.9395 45.8634V45.5936L48.9829 45.3238L49.0263 45.2159L49.1565 45.054L52.0644 45L53.54 47.6982L52.672 49.0474Z" fill="url(#paint6_linear_0_1951)"/>
<path d="M52.672 49.0474L50.5453 48.9934L49.7641 47.4824L49.2867 46.6189L48.9395 45.8634V45.5936L48.9829 45.3238L49.0263 45.2159L49.1565 45.054L52.0644 45L53.54 47.6982L52.672 49.0474Z" fill="url(#paint7_linear_0_1951)"/>
<path d="M39.3411 54.7706C38.5672 54.7706 37.8111 54.6861 37.0728 54.517C36.3434 54.3391 35.7429 54.1032 35.2715 53.8096L36.2855 51.5138C36.7303 51.7718 37.2284 51.9809 37.78 52.1411C38.3315 52.2924 38.8607 52.368 39.3678 52.368C39.8036 52.368 40.115 52.328 40.3018 52.2479C40.4886 52.1589 40.582 52.0299 40.582 51.8608C40.582 51.665 40.4574 51.5182 40.2084 51.4203C39.9682 51.3224 39.5679 51.2157 39.0075 51.1C38.287 50.9487 37.6866 50.7885 37.2062 50.6194C36.7259 50.4415 36.3078 50.1567 35.952 49.7652C35.5962 49.3647 35.4183 48.8264 35.4183 48.1501C35.4183 47.5628 35.5828 47.0289 35.9119 46.5484C36.2411 46.0678 36.7303 45.6896 37.3797 45.4138C38.0379 45.1379 38.834 45 39.768 45C40.4085 45 41.0356 45.0712 41.6494 45.2136C42.2721 45.347 42.8191 45.5473 43.2906 45.8142L42.3432 48.0967C41.427 47.634 40.5597 47.4026 39.7414 47.4026C38.9319 47.4026 38.5272 47.5984 38.5272 47.9899C38.5272 48.1768 38.6472 48.3192 38.8874 48.4171C39.1276 48.506 39.5234 48.6039 40.0749 48.7107C40.7866 48.8442 41.387 48.9999 41.8762 49.1779C42.3655 49.347 42.788 49.6273 43.1438 50.0188C43.5085 50.4103 43.6909 50.9442 43.6909 51.6205C43.6909 52.2078 43.5263 52.7418 43.1972 53.2223C42.868 53.6939 42.3744 54.0721 41.7161 54.3568C41.0668 54.6327 40.2751 54.7706 39.3411 54.7706Z" fill="white"/>
<path d="M31.5034 52.9325H27.9653L27.3402 54.5629H24.1479L28.2181 45.2079H31.3039L35.374 54.5629H32.1286L31.5034 52.9325ZM30.6388 50.6605L29.7344 48.3084L28.8299 50.6605H30.6388Z" fill="white"/>
<path d="M20.1824 54.7706C19.1991 54.7706 18.3132 54.566 17.5248 54.1566C16.7363 53.7384 16.1162 53.16 15.6644 52.4214C15.2215 51.6739 15 50.8286 15 49.8853C15 48.9421 15.2215 48.1012 15.6644 47.3626C16.1162 46.6151 16.7363 46.0367 17.5248 45.6273C18.3132 45.2091 19.1991 45 20.1824 45C21.086 45 21.8921 45.1602 22.6008 45.4805C23.3095 45.8009 23.8942 46.2636 24.3549 46.8687L22.3749 48.644C21.7991 47.9143 21.1214 47.5494 20.3418 47.5494C19.6863 47.5494 19.1592 47.763 18.7605 48.1901C18.3619 48.6084 18.1626 49.1734 18.1626 49.8853C18.1626 50.5972 18.3619 51.1667 18.7605 51.5938C19.1592 52.0121 19.6863 52.2212 20.3418 52.2212C21.1214 52.2212 21.7991 51.8563 22.3749 51.1267L24.3549 52.9019C23.8942 53.507 23.3095 53.9698 22.6008 54.2901C21.8921 54.6105 21.086 54.7706 20.1824 54.7706Z" fill="white"/>
<defs>
<filter id="filter0_f_0_1951" x="40.5395" y="36.6" width="21.4006" height="20.8474" filterUnits="userSpaceOnUse" color-interpolation-filters="sRGB">
<feFlood flood-opacity="0" result="BackgroundImageFix"/>
<feBlend mode="normal" in="SourceGraphic" in2="BackgroundImageFix" result="shape"/>
<feGaussianBlur stdDeviation="4.2" result="effect1_foregroundBlur_0_1951"/>
</filter>
<linearGradient id="paint0_linear_0_1951" x1="52.1242" y1="45" x2="49.8111" y2="48.2851" gradientUnits="userSpaceOnUse">
<stop stop-color="#FFED72"/>
<stop offset="1" stop-color="#FB5A00"/>
</linearGradient>
<linearGradient id="paint1_linear_0_1951" x1="51.1305" y1="45" x2="51.1305" y2="48.8552" gradientUnits="userSpaceOnUse">
<stop stop-color="#FFED72"/>
<stop offset="1" stop-color="#FB9700"/>
</linearGradient>
<linearGradient id="paint2_linear_0_1951" x1="52.1242" y1="45" x2="49.8111" y2="48.2851" gradientUnits="userSpaceOnUse">
<stop stop-color="#FFED72"/>
<stop offset="1" stop-color="#FB5A00"/>
</linearGradient>
<linearGradient id="paint3_linear_0_1951" x1="51.1305" y1="45" x2="51.1305" y2="48.8552" gradientUnits="userSpaceOnUse">
<stop stop-color="#FFED72"/>
<stop offset="1" stop-color="#FB9700"/>
</linearGradient>
<linearGradient id="paint4_linear_0_1951" x1="52.2829" y1="45" x2="49.8546" y2="48.4488" gradientUnits="userSpaceOnUse">
<stop stop-color="#FFED72"/>
<stop offset="1" stop-color="#FB5A00"/>
</linearGradient>
<linearGradient id="paint5_linear_0_1951" x1="51.2397" y1="45" x2="51.2397" y2="49.0474" gradientUnits="userSpaceOnUse">
<stop stop-color="#FFED72"/>
<stop offset="1" stop-color="#FB9700"/>
</linearGradient>
<linearGradient id="paint6_linear_0_1951" x1="52.2829" y1="45" x2="49.8546" y2="48.4488" gradientUnits="userSpaceOnUse">
<stop stop-color="#FFED72"/>
<stop offset="1" stop-color="#FB5A00"/>
</linearGradient>
<linearGradient id="paint7_linear_0_1951" x1="51.2397" y1="45" x2="51.2397" y2="49.0474" gradientUnits="userSpaceOnUse">
<stop stop-color="#FFED72"/>
<stop offset="1" stop-color="#FB9700"/>
</linearGradient>
</defs>
</svg>
